<svg xmlns="http://www.w3.org/2000/svg" width="95.571" height="68.618" viewBox="0 0 95.571 68.618">
  <g id="Group_213" data-name="Group 213" transform="translate(0 -0.007)">
    <path id="Path_883" data-name="Path 883" d="M7161.49,3610.38c2.434-4.692,7.1-5.127,12.774-4.431s10.86,5.821,10.86,5.821,5.479,2.521,7.213-1.39.523-7.734-7.213-12.6-22.68-2.955-29.109.7-7.474,10.425-7.474,14.686,3.823,11.383,11.036,15.642,10.863,4.518,15.815,5.909,9.386,8.774,6.861,12.338-7.389,3.91-7.389,3.91a23.526,23.526,0,0,0-6.952-.783,4.875,4.875,0,0,0-4.346,6.17c.783,2.867.266,2.955,5.648,5.3s18.162-1.042,21.641-5.3,5.648-7.213,4.6-15.033a15.217,15.217,0,0,0-6.861-11.037,57.551,57.551,0,0,0-8.429-4.865c-5.28-2.542-10.083-4.259-12.688-5.3S7159.06,3615.07,7161.49,3610.38Z" transform="translate(-7146.206 -3594.346)" fill="#801ba3" stroke="#801ba3" stroke-width="1"/>
    <g id="Ellipse_232" data-name="Ellipse 232" transform="translate(0 46.789)" fill="#801ba3" stroke="#801ba3" stroke-width="1">
      <circle cx="6.598" cy="6.598" r="6.598" stroke="none"/>
      <circle cx="6.598" cy="6.598" r="6.098" fill="none"/>
    </g>
    <path id="Path_884" data-name="Path 884" d="M2526.92,4119.52c-2.347,0-5.028-3.755-5.028-3.755v-44.72s1.341-2.212,9.386-2.145,12.4-.8,16.226,0,10.325,5.631,11.733,12.873-1.14,10.728-4.291,14.281-3.956,2.146-3.084,3.084,2.414,5.766-1.006,7.576-5.833-1.676-5.833-1.676l-2.883-4.022h-10.862v14.75S2529.26,4119.52,2526.92,4119.52Z" transform="translate(-2465.989 -4059.748)" fill="#801ba3"/>
    <circle id="Ellipse_233" data-name="Ellipse 233" cx="5.162" cy="5.162" r="5.162" transform="translate(85.247 49.447)" fill="#801ba3"/>
    <path id="Path_885" data-name="Path 885" d="M2533.03,4079.44v14.917h13.687s5.277-2.261,5.118-7.458-5.554-7.458-5.554-7.458Z" transform="translate(-2467.545 -4061.446)" fill="#f6f6f6"/>
  </g>
</svg>
