<svg xmlns="http://www.w3.org/2000/svg" width="394.908" height="207.838" viewBox="0 0 394.908 207.838">
  <g id="_12121212" data-name="12121212" transform="translate(0)">
    <path id="Path_566" data-name="Path 566" d="M277.166,352.672a36.588,36.588,0,0,1-.719,4.276h36.03v-4.276Zm-30.089,24.152,4.272-.035V366.226c-1.465-.065-2.892-.131-4.272-.2Zm-89.564-24.152v4.276h76.328v-4.276ZM484.237,222.118H455.782V188.476q-2.057-.834-4.276-1.538v35.18H354.013V186.58c-1.434.281-2.857.577-4.276.877v34.661H251.349V205.641c-1.419-.042-2.845-.111-4.272-.2v16.681H148.688V198.277c-9.548,5.829-18.511,14.027-26.505,23.841h-.027v.031q-1.692,2.076-3.322,4.23h3.322V352.672H90.24q.638,2.165,1.384,4.276h30.528v36a33.448,33.448,0,0,0,4.691,1.073c.465.073.934.135,1.4.188h0a33.844,33.844,0,0,0,4.149.208l16.277-.177v-37.3h98.4v36.226l4.272-.046V356.948h98.389v35.13l4.276-.046V356.948h97.473v1.834c.292-.608.592-1.215.892-1.834q1.011-2.1,2.049-4.276.665-1.4,1.334-2.846V226.394h29.385Q484.76,224.206,484.237,222.118ZM148.688,352.672V226.378h98.389V352.672Zm102.668,0V226.378h98.381V352.672Zm200.138,0H354.013V226.378h97.473Z" transform="translate(-90.24 -186.58)" opacity="0.1"/>
    <path id="Path_567" data-name="Path 567" d="M397.176,516.109v5l-58.417.538-.623.011-22.2.2-.531.008-6.748.058h-.2l-41.137.381-67.527.627h-.058l-17.169.162-.185,0-76.29.7v-5.768l17.938-10.767,35.992-.3.769,0,.254,0,.769-.011,17.281-.142.773,0,.246,0,.769,0,5.541-.046.146,0,13.67-.115h.111l106.668-.9,2.611-.019h.261l1.992-.019,14.477-.119.769-.012.711-.008h.369l4.5-.035.892-.012,1.2-.008,3.749-.035,5.949-.05.769-.008,1.338-.008h.25l28.728-.246Z" transform="translate(-69.487 -316.164)" fill="#65617d"/>
    <path id="Path_568" data-name="Path 568" d="M397.176,516.109v5l-58.417.538-.623.011-22.2.2-.531.008-6.748.058h-.2l-41.137.381-67.527.627h-.058l-17.169.162-.185,0-76.29.7v-5.768l17.938-10.767,35.992-.3.769,0,.254,0,.769-.011,17.281-.142.773,0,.246,0,.769,0,5.541-.046.146,0,13.67-.115h.111l106.668-.9,2.611-.019h.261l1.992-.019,14.477-.119.769-.012.711-.008h.369l4.5-.035.892-.012,1.2-.008,3.749-.035,5.949-.05.769-.008,1.338-.008h.25l28.728-.246Z" transform="translate(-69.487 -316.164)" opacity="0.2"/>
    <path id="Path_569" data-name="Path 569" d="M346.408,656.57v9.417a2.357,2.357,0,0,1-1.346,2.13,2.309,2.309,0,0,1-.961.231l-13.42.285a2.308,2.308,0,0,1-1.038-.219,2.353,2.353,0,0,1-1.373-2.142v-9.7Z" transform="translate(-236.741 -475.847)" fill="#3f3d56"/>
    <path id="Path_570" data-name="Path 570" d="M346.408,656.57v9.417a2.357,2.357,0,0,1-1.346,2.13,2.309,2.309,0,0,1-.961.231l-13.42.285a2.308,2.308,0,0,1-1.038-.219,2.353,2.353,0,0,1-1.373-2.142v-9.7Z" transform="translate(-236.741 -475.847)" opacity="0.1"/>
    <path id="Path_571" data-name="Path 571" d="M348.408,656.57v9.417a2.357,2.357,0,0,1-1.346,2.13,2.309,2.309,0,0,1-.961.231l-13.42.285a2.308,2.308,0,0,1-1.038-.219,2.353,2.353,0,0,1-1.373-2.142v-9.7Z" transform="translate(-237.972 -475.847)" fill="#3f3d56"/>
    <rect id="Rectangle_178" data-name="Rectangle 178" width="18.138" height="12.113" transform="translate(257.64 180.719)" fill="#3f3d56"/>
    <rect id="Rectangle_179" data-name="Rectangle 179" width="18.138" height="12.113" transform="translate(257.64 180.719)" opacity="0.1"/>
    <rect id="Rectangle_180" data-name="Rectangle 180" width="18.138" height="12.113" transform="translate(256.871 180.719)" fill="#3f3d56"/>
    <path id="Path_572" data-name="Path 572" d="M269.058,483.65v1.911l-18.138.484v-2.4Z" transform="translate(-158.626 -302.931)" opacity="0.1"/>
    <path id="Path_573" data-name="Path 573" d="M337.9,482.839v64.677a1.538,1.538,0,0,1-1.48,1.519L262.728,551h-.019a1.538,1.538,0,0,1-1.519-1.519V482.839a1.538,1.538,0,0,1,1.519-1.519h73.675a1.538,1.538,0,0,1,1.519,1.519Z" transform="translate(-195.455 -367.985)" fill="#65617d"/>
    <path id="Path_574" data-name="Path 574" d="M262.728,481.32V551h-.019a1.538,1.538,0,0,1-1.519-1.519V482.839a1.538,1.538,0,0,1,1.519-1.519Z" transform="translate(-195.455 -367.985)" opacity="0.1"/>
    <path id="Path_575" data-name="Path 575" d="M194.59,319.15h68.253v57.006l-68.253,1.538Z" transform="translate(-123.956 -201.685)" fill="#6c63ff"/>
    <path id="Path_576" data-name="Path 576" d="M697.058,483.65v2.465l-18.138-.484v-1.98Z" transform="translate(-422.049 -302.931)" opacity="0.1"/>
    <path id="Path_577" data-name="Path 577" d="M744.878,482.839v66.638A1.538,1.538,0,0,1,743.34,551h0l-73.71-1.961a1.538,1.538,0,0,1-1.48-1.519V482.839a1.538,1.538,0,0,1,1.519-1.519h73.675A1.538,1.538,0,0,1,744.878,482.839Z" transform="translate(-445.929 -367.985)" fill="#65617d"/>
    <path id="Path_578" data-name="Path 578" d="M865.228,482.839v66.638A1.538,1.538,0,0,1,863.69,551h0V481.32h0a1.538,1.538,0,0,1,1.538,1.519Z" transform="translate(-566.279 -367.985)" opacity="0.1"/>
    <path id="Path_579" data-name="Path 579" d="M666.343,319.15H598.09v57.006l68.253,1.538Z" transform="translate(-372.3 -201.685)" fill="#6c63ff"/>
    <path id="Path_580" data-name="Path 580" d="M540.4,482.839v64.677a1.538,1.538,0,0,1-1.48,1.519L465.228,551h0a1.538,1.538,0,0,1-1.538-1.519V482.839a1.538,1.538,0,0,1,1.519-1.519h73.675A1.538,1.538,0,0,1,540.4,482.839Z" transform="translate(-320.089 -367.985)" fill="#65617d"/>
    <path id="Path_581" data-name="Path 581" d="M397.09,319.15h68.253v57.006l-68.253,1.538Z" transform="translate(-248.59 -201.685)" fill="#6c63ff"/>
    <path id="Path_582" data-name="Path 582" d="M397.176,533.65v5l-58.417.538-.623.012-22.2.2-.531.008-6.748.058h-.2l-41.137.38-67.527.627h-.058l-17.169.162-.185,0-76.29.7v-5.768l77.87-.512h.185l15.762-.108h.073l108.852-.719h.112l.065,0h.181l1.842-.012h.561l28.643-.192,1.692-.008.377,0Z" transform="translate(-69.487 -333.705)" opacity="0.1"/>
    <ellipse id="Ellipse_211" data-name="Ellipse 211" cx="19.738" cy="19.738" rx="19.738" ry="19.738" transform="translate(163.435 89.652)" fill="#fbbebe"/>
    <path id="Path_583" data-name="Path 583" d="M562.154,482.35s-38.26,4.614-34.607,0c1.323-1.669,1.688-6.614,1.615-12.247-.023-1.711-.085-3.484-.173-5.249-.423-8.46-1.442-16.727-1.442-16.727s33.454-15.766,29.609-3.268c-1.538,5.049-1.034,12.139.135,18.8.342,1.942.738,3.845,1.154,5.652A132.526,132.526,0,0,0,562.154,482.35Z" transform="translate(-359.239 -342.579)" fill="#fbbebe"/>
    <path id="Path_584" data-name="Path 584" d="M497.882,541.681c4.426-.819,9.113-2.307,13.278-.592,1.1.45,2.1,1.107,3.226,1.484s2.353.469,3.522.734c4.107.931,7.437,4.057,9.575,7.691s3.245,7.744,4.33,11.813l2.653,9.932c2.307,8.633,4.614,17.338,5.149,26.263a937.281,937.281,0,0,1-96.454.55c2.092-3.976,4.23-8.194,4.053-12.689s-2.765-8.929-1.83-13.358c.6-2.822,2.526-5.149,3.707-7.775,3.365-7.506.746-17.607,6.66-23.322,2.661-2.569,6.537-3.541,10.24-3.418,4.722.158,9.555,1.63,14.227,2.349C486.2,542.25,491.853,542.789,497.882,541.681Z" transform="translate(-307.453 -403.475)" fill="#ff6584"/>
    <path id="Path_585" data-name="Path 585" d="M539.483,650.007l-.039.55v.038l-.065.884-.511,7.118-.619,8.575-.177,2.415-.385,5.168v.065l-41.144.385-67.519.731v.323h-.054v-.431l.173-5.522.331-10.79.285-9.148.027-.911a4.049,4.049,0,0,1,4.391-3.911c1.815.154,4.172.342,6.991.542l1.154.085c16.277,1.13,46.359,2.592,76.713.769.638-.035,1.28-.073,1.923-.119,4.707-.3,9.409-.677,14.066-1.154a4.049,4.049,0,0,1,4.461,4.318Z" transform="translate(-298.72 -469.054)" opacity="0.1"/>
    <path id="Path_586" data-name="Path 586" d="M429.08,678.739v-.323l67.53-.734,41.144-.385h.115v-.065l.385-5.168.165-2.307.631-8.694.5-6.883v-.169a4.08,4.08,0,0,0-.042-.95.112.112,0,0,0,0-.038,4,4,0,0,0-.769-1.784,4.053,4.053,0,0,0-3.622-1.538c-4.657.477-9.359.857-14.066,1.154-.642.046-1.284.084-1.923.119-30.354,1.8-60.436.342-76.713-.769l-1.154-.085c-2.819-.2-5.176-.384-6.991-.542a4.053,4.053,0,0,0-4.322,3.28,4.219,4.219,0,0,0-.069.631l-.261,8.521-.358,10.794-.169,5.522v.431Z" transform="translate(-298.787 -471.534)" fill="#3f3d56"/>
    <path id="Path_587" data-name="Path 587" d="M539.684,659.809l-.473,5.895-.7,8.786-.177,2.2-.385,4.926-.023.246v.065h0l-.058.569.042-.569H537.8l-41.144.385-67.542.731v-.108l.188-5.522.384-10.79.246-7.171a2.446,2.446,0,0,1,1.177-2.019,2.4,2.4,0,0,1,1.453-.346c.808.065,1.8.142,2.957.227,1.88.138,4.2.3,6.9.469,5,.315,11.27.654,18.457.931,20,.769,46.989,1.027,72.629-1.219,1.154-.1,2.346-.211,3.511-.323a2.407,2.407,0,0,1,1.338.254,1.991,1.991,0,0,1,.331.208,2.361,2.361,0,0,1,.769.946,1.378,1.378,0,0,1,.1.235A2.415,2.415,0,0,1,539.684,659.809Z" transform="translate(-298.806 -476.16)" opacity="0.1"/>
    <path id="Path_588" data-name="Path 588" d="M348.408,677.87V679.1a2.357,2.357,0,0,1-1.346,2.13l-15.419.3a2.353,2.353,0,0,1-1.373-2.142v-1.154Z" transform="translate(-237.972 -488.957)" opacity="0.1"/>
    <path id="Path_589" data-name="Path 589" d="M266.431,510.234l-20.091.384v-3.334l20.091-.385Z" transform="translate(-155.807 -317.241)" fill="#3f3d56"/>
    <path id="Path_590" data-name="Path 590" d="M266.431,510.234l-20.091.384v-3.334l20.091-.385Z" transform="translate(-155.807 -317.241)" opacity="0.1"/>
    <path id="Path_591" data-name="Path 591" d="M268.431,510.234l-20.091.384v-3.334l20.091-.385Z" transform="translate(-157.038 -317.241)" fill="#3f3d56"/>
    <path id="Path_592" data-name="Path 592" d="M758.56,679.87V681.1a2.357,2.357,0,0,0,1.346,2.13l15.42.3a2.353,2.353,0,0,0,1.373-2.142v-1.154Z" transform="translate(-501.574 -490.188)" opacity="0.1"/>
    <path id="Path_593" data-name="Path 593" d="M678.72,512.234l20.091.385v-3.334L678.72,508.9Z" transform="translate(-421.926 -318.472)" opacity="0.1"/>
    <path id="Path_594" data-name="Path 594" d="M676.72,512.234l20.091.385v-3.334L676.72,508.9Z" transform="translate(-420.695 -318.472)" fill="#3f3d56"/>
    <path id="Path_595" data-name="Path 595" d="M511.456,433.392c.031,2.692-1.215,5.23-2.273,7.717a62.868,62.868,0,0,0-4.868,28.728c.281,4.23.992,8.46.281,12.651s-3.242,8.371-7.306,9.575a20.68,20.68,0,0,0,22.21-1.023c3.38-2.461,5.9-5.895,8.364-9.271a37.631,37.631,0,0,1-5.118,17.208,39.772,39.772,0,0,0,28.266-15.7,20.589,20.589,0,0,0,3.738-7.394c1.188-5-.469-10.194-1.734-15.189a102.3,102.3,0,0,1-2.373-12.689,11.292,11.292,0,0,1,.038-4.115,19.736,19.736,0,0,1,2.169-4.314c2.153-4.053,2.2-8.959,1.1-13.412s-3.265-8.56-5.406-12.616c-1.715-3.253-3.576-6.656-6.714-8.567a20.422,20.422,0,0,0-6.491-2.169l-9.755-2.088a18.024,18.024,0,0,0-6.487-.581c-3.641.569-6.206,3.2-8.459,5.9-1.765,2.1-6.079,6.041-6.383,8.79-.277,2.534,1.961,6.779,2.342,9.452.5,3.461.854,2.307,2.807,4.43A6.829,6.829,0,0,1,511.456,433.392Z" transform="translate(-340.769 -317.954)" fill="#3f3d56"/>
    <path id="Path_596" data-name="Path 596" d="M317.991,505.885h-38.3a.192.192,0,1,1,0-.385h38.3a.192.192,0,1,1,0,.385Z" transform="translate(-206.725 -382.867)" fill="#f2f2f2"/>
    <path id="Path_597" data-name="Path 597" d="M317.991,514.885h-38.3a.192.192,0,1,1,0-.385h38.3a.192.192,0,1,1,0,.385Z" transform="translate(-206.725 -388.407)" fill="#f2f2f2"/>
    <path id="Path_598" data-name="Path 598" d="M317.991,523.885h-38.3a.192.192,0,0,1,0-.385h38.3a.192.192,0,0,1,0,.385Z" transform="translate(-206.725 -393.946)" fill="#f2f2f2"/>
  </g>
</svg>
