<svg xmlns="http://www.w3.org/2000/svg" width="76.147" height="65.56" viewBox="0 0 76.147 65.56">
  <g id="undraw_lost_online_wqob11111111" transform="translate(0)">
    <ellipse id="Ellipse_138" data-name="Ellipse 138" cx="32.523" cy="32.78" rx="32.523" ry="32.78" transform="translate(6.821 0)" fill="#6c63ff"/>
    <ellipse id="Ellipse_139" data-name="Ellipse 139" cx="4.464" cy="4.821" rx="4.464" ry="4.821" transform="translate(33.537 14.622)" opacity="0.2"/>
    <ellipse id="Ellipse_140" data-name="Ellipse 140" cx="7.737" cy="8.356" rx="7.737" ry="8.356" transform="translate(30.263 43.385)" opacity="0.2"/>
    <ellipse id="Ellipse_141" data-name="Ellipse 141" cx="1.934" cy="2.089" rx="1.934" ry="2.089" transform="translate(12.164 36.958)" opacity="0.2"/>
    <ellipse id="Ellipse_143" data-name="Ellipse 143" cx="1.028" cy="1.11" rx="1.028" ry="1.11" transform="translate(47.864 11.084)" opacity="0.2"/>
    <ellipse id="Ellipse_144" data-name="Ellipse 144" cx="1.339" cy="1.446" rx="1.339" ry="1.446" transform="translate(35.239 32.78)" opacity="0.2"/>
    <ellipse id="Ellipse_146" data-name="Ellipse 146" cx="1.028" cy="1.11" rx="1.028" ry="1.11" transform="translate(62.818 25.259)" opacity="0.2"/>
    <ellipse id="Ellipse_148" data-name="Ellipse 148" cx="1.485" cy="1.604" rx="1.485" ry="1.604" transform="translate(52.652 36.091)" opacity="0.2"/>
    <ellipse id="Ellipse_149" data-name="Ellipse 149" cx="1.934" cy="2.089" rx="1.934" ry="2.089" transform="translate(17.547 17.354)" opacity="0.2"/>
    <path id="Path_239" data-name="Path 239" d="M230.527,428.41a88.428,88.428,0,0,1-10.13-.6c-10.115-1.17-19.444-3.934-26.268-7.784-6.908-3.9-10.442-8.459-9.953-12.847.339-3.04,3.225-5.762,8.821-8.319a.324.324,0,0,1,.245,0,.3.3,0,0,1,.17.166.324.324,0,0,1-.159.425c-5.376,2.456-8.141,5.009-8.452,7.8-.459,4.113,2.962,8.45,9.632,12.213,6.753,3.81,16,6.547,26.033,7.707s19.647.6,27.067-1.566c7.329-2.143,11.617-5.589,12.075-9.7.311-2.783-1.195-5.733-4.352-8.532a.325.325,0,0,1-.031-.453.305.305,0,0,1,.215-.11.31.31,0,0,1,.23.078c3.322,2.945,4.9,6.087,4.565,9.089-.49,4.388-4.937,8.027-12.528,10.247A62.044,62.044,0,0,1,230.527,428.41Z" transform="translate(-184.132 -376.738)" fill="#fff"/>
  </g>
</svg>
