<svg id="Group_156" data-name="Group 156" xmlns="http://www.w3.org/2000/svg" width="244.626" height="203.269" viewBox="0 0 244.626 203.269">
  <path id="Path_412" data-name="Path 412" d="M0,203.262V0H244.626V203.262Z" fill="none"/>
  <g id="Group_7" data-name="Group 7" transform="translate(43.25 5.694)">
    <path id="Path_413" data-name="Path 413" d="M199.875,131.265l-5.85,5.844-11.644-11.653,5.844-5.844Zm-48.2,7.326v22.631l-14.818,11.112,4.939,6.586,18.1-13.575V138.584Zm45.275,24.7A41.161,41.161,0,0,1,131.1,196.222H24.08V6.88H128.667l43.589,43.589v75.117a41.168,41.168,0,0,1,24.7,37.7ZM126.981,52.155h35.356L126.981,16.794ZM85.82,89.2h57.623V80.968H85.82Zm0,32.927h53.509V113.9H85.82Zm-8.231,16.465h-24.7v24.7h24.7Zm0-32.927h-24.7v24.7h24.7Zm0-32.927h-24.7v24.7h24.7Zm40.5,74.094H85.82v8.226h29.635a39.234,39.234,0,0,1,2.635-8.226Zm70.631,16.465A33.017,33.017,0,0,0,159.9,130.608v-8.479h4.131V113.9H147.56v8.231h4.117v8.521a27.923,27.923,0,0,0-4.117.781,32.915,32.915,0,0,0-20.251,15.4,32.081,32.081,0,0,0-4.445,16.465,32.928,32.928,0,1,0,65.857,0ZM69.355,80.968h-8.24V89.2h8.231Zm0,32.927h-8.24v8.231h8.231Zm0,32.927h-8.24v8.233h8.231Z" transform="translate(-24.08 -6.88)" fill="#c200bc"/>
  </g>
</svg>
