<svg id="Group_157" data-name="Group 157" xmlns="http://www.w3.org/2000/svg" width="199.758" height="203.269" viewBox="0 0 199.758 203.269">
  <path id="Path_414" data-name="Path 414" d="M0,203.269V0H199.758V203.269Z" fill="none"/>
  <g id="Group_8" data-name="Group 8" transform="translate(11.389 5.89)">
    <path id="Path_415" data-name="Path 415" d="M103.083,3.44A12.084,12.084,0,0,0,91.062,15.461v44.07a12.084,12.084,0,0,0,12.021,12.021H111.9a19.388,19.388,0,0,1,.736,3.507,20.344,20.344,0,0,1-1.111,10.722,4,4,0,0,0,3.584,5.808c8.232,0,13.994-6.277,17.8-11.723a38.646,38.646,0,0,0,4.57-8.311H171.2a12.084,12.084,0,0,0,12.021-12.021V15.461A12.085,12.085,0,0,0,171.2,3.44Zm0,8.013H171.2a3.938,3.938,0,0,1,4.006,4.006V59.531a3.938,3.938,0,0,1-4.006,4.006H135.137a3.979,3.979,0,0,0-3.71,2.52,52.69,52.69,0,0,1-5.071,9.2,27.384,27.384,0,0,1-5.556,5.933,36.487,36.487,0,0,0-.219-7.138,44.4,44.4,0,0,0-1.674-7.778,4,4,0,0,0-3.8-2.739H103.083a3.938,3.938,0,0,1-4.006-4.006V15.461a3.938,3.938,0,0,1,4.006-4.006Zm-24.058,8.14h-.3C63.4,20.735,53.607,28.89,49.792,40.253c-3.632,10.8-2.426,24.089.955,38.08a12.631,12.631,0,0,0-3.767,9.235A17.358,17.358,0,0,0,51.165,99.6a10.547,10.547,0,0,0,4.32,2.317,37.325,37.325,0,0,0,2.426,11.583A24.527,24.527,0,0,0,63,120.962c0,5.118.031,9.075,0,14.086-1.565,3.364-4.794,6.088-9.689,8.655-5.085,2.686-11.629,5.1-18.187,8.114a58.094,58.094,0,0,0-18.563,12.35A36.25,36.25,0,0,0,6.9,187.5l-.25,4.28H167.459l-.25-4.28a36.258,36.258,0,0,0-9.672-23.359,58.484,58.484,0,0,0-18.594-12.35c-6.59-3.036-13.117-5.431-18.2-8.123-4.883-2.568-8.092-5.291-9.626-8.624-.046-5.385,0-9.36,0-14.415a27.291,27.291,0,0,0,5.071-6.809,23.916,23.916,0,0,0,2.943-10.22,4.025,4.025,0,0,0-1.236-2.911,4.08,4.08,0,0,0-2.974-1.111,8,8,0,0,1-7.826-8V83.571a8.03,8.03,0,0,0-8.013-8.013H95.072c-4.414,0-12.021-4.006-12.021-12.021V24.71a4.032,4.032,0,0,0-.7-3.584,3.984,3.984,0,0,0-3.318-1.541ZM115.1,23.474v8.013h28.049V23.474Zm36.062,0v8.013h12.021V23.474ZM115.1,43.506v8.013h12.021V43.506Zm20.032,0v8.013h28.05V43.506Z" transform="translate(-6.652 -3.44)" fill="#c200bc"/>
  </g>
</svg>
