<svg id="مدرککک" xmlns="http://www.w3.org/2000/svg" width="183.744" height="281.267" viewBox="0 0 183.744 281.267">
  <path id="Path_418" data-name="Path 418" d="M0,281.267V0H183.725V281.267Z" fill="none"/>
  <g id="Group_10" data-name="Group 10" transform="translate(20.966 38.798)">
    <path id="Path_419" data-name="Path 419" d="M32.307,13.764a4.8,4.8,0,0,0-4.787,4.779V210.024a4.785,4.785,0,0,0,4.787,4.787H65.816v9.59a4.791,4.791,0,0,0,7.639,3.89l16.306-12.267,16.306,12.267a4.791,4.791,0,0,0,7.639-3.89v-9.574h71.805a4.773,4.773,0,0,0,4.787-4.787V18.543a4.785,4.785,0,0,0-4.787-4.787ZM61.029,71.208H156.77v9.574H61.029Zm0,28.722H156.77V109.5H61.029Zm28.722,38.745a6.789,6.789,0,0,1,6.732,4.787c.486.486.411.449.9.449a7.106,7.106,0,0,1,3.739-.9,7.282,7.282,0,0,1,4.487,1.5,6.534,6.534,0,0,1,1.8,7.639c0,.486.6.431.6.9a7.169,7.169,0,0,1,5.68,5.835,7.067,7.067,0,0,1-3.291,7.181V167.4a6.918,6.918,0,0,1-5.68,11.07,6.526,6.526,0,0,1-1.048,0c0,.486-.56.431-1.048.9a6.137,6.137,0,0,1-4.19,6.283,4.385,4.385,0,0,1-2.394.449,7.968,7.968,0,0,1-5.386-2.393h-1.8a8.082,8.082,0,0,1-7.78,1.945,6.781,6.781,0,0,1-4.19-6.283c0-.486-.56-.431-1.048-.9a6.522,6.522,0,0,1-1.048,0,7.247,7.247,0,0,1-6.133-3.441,6.452,6.452,0,0,1,.449-7.639v-1.342a7.067,7.067,0,0,1-3.291-7.181,7.147,7.147,0,0,1,5.68-5.835c0-.486.6-.431.6-.9a6.54,6.54,0,0,1,1.8-7.639,7.282,7.282,0,0,1,4.487-1.5,7.106,7.106,0,0,1,3.739.9c.486-.486.411-.449.9-.449a7.216,7.216,0,0,1,6.732-4.787Zm-14.361,54.6a17.216,17.216,0,0,0,2.245,1.2,4.2,4.2,0,0,0,.449.149,17.04,17.04,0,0,0,5.386.9,16.431,16.431,0,0,0,6.133-1.2,16.806,16.806,0,0,0,6.432,1.346,13.406,13.406,0,0,0,5.984-1.2,19.882,19.882,0,0,0,2.094-1.048v21.393L92.593,206.14a4.769,4.769,0,0,0-5.68,0l-11.519,8.677Z" transform="translate(-27.52 -13.756)" fill="#c200bc"/>
  </g>
</svg>
