<svg id="یبلفغغعتهع" xmlns="http://www.w3.org/2000/svg" width="278.413" height="234.458" viewBox="0 0 278.413 234.458">
  <path id="Path_422" data-name="Path 422" d="M0,234.458V0H278.413V234.458Z" fill="none"/>
  <g id="Group_12" data-name="Group 12" transform="translate(45.299 12.942)">
    <path id="Path_423" data-name="Path 423" d="M24.08,6.88V183.631H41.325v17.245H144.789v12.933h64.665V140.522H179.276V24.125H162.032V6.88ZM32.7,15.5H153.41v8.621H41.325V175.009H32.7Zm44.87,25.866A5.514,5.514,0,0,1,82.4,43.741c6.539,0,4.84,9.116,3.847,12.1a4.231,4.231,0,0,1,.816,2.745,4.118,4.118,0,0,1-1.844,3.125,7.318,7.318,0,0,1-3.183,5.06,42.94,42.94,0,0,0,0,4.472c1.862,5,14.274,3.593,14.861,13.236H58.567c.578-9.643,12.98-8.24,14.844-13.236a42.944,42.944,0,0,0,0-4.472,8.206,8.206,0,0,1-3.275-5.06,3.881,3.881,0,0,1-1.853-3.478,3.5,3.5,0,0,1,.941-2.383c-1.832-7.022-1.046-14.31,8.352-14.485ZM123.233,50h34.489a4.311,4.311,0,1,1,0,8.622H123.233a4.311,4.311,0,1,1,0-8.622Zm0,21.554h34.489a4.311,4.311,0,1,1,0,8.622H123.233a4.311,4.311,0,1,1,0-8.622ZM62.879,114.656h60.354a4.311,4.311,0,1,1,0,8.622H62.879a4.311,4.311,0,1,1,0-8.622Zm81.91,0h12.933a4.311,4.311,0,1,1,0,8.622H144.789a4.311,4.311,0,1,1,0-8.622Zm-81.91,25.866H110.3a4.311,4.311,0,1,1,0,8.622H62.879a4.311,4.311,0,1,1,0-8.622Zm90.531,8.621h47.42v12.933H153.41ZM62.879,166.388h60.354a4.311,4.311,0,1,1,0,8.622H62.879a4.311,4.311,0,1,1,0-8.622Zm90.531,4.31h47.42v12.933H153.41Zm0,21.554h47.42v12.941H153.41Z" transform="translate(-24.08 -6.88)" fill="#c200bc"/>
  </g>
</svg>
