<svg viewBox="0 0 32 32" xml:space="preserve" xmlns="http://www.w3.org/2000/svg" enable-background="new 0 0 32 32"><path d="M29.707 4.352 26.98 2.201a4.685 4.685 0 0 0-3.886-.911L9.136 4.227H4.139A3.643 3.643 0 0 0 .5 7.867v12.026a3.643 3.643 0 0 0 3.64 3.64h7.335c.202 0 .394.097.514.258l4.105 5.542c.708.956 1.772 1.48 2.895 1.48.387 0 .781-.062 1.17-.19a3.588 3.588 0 0 0 2.498-3.456v-2.995a.64.64 0 0 1 .64-.639h3.494a4.714 4.714 0 0 0 4.709-4.709V8.05a4.681 4.681 0 0 0-1.793-3.698zM7.791 20.533H4.14a.64.64 0 0 1-.639-.64V7.867a.64.64 0 0 1 .64-.64h3.652v13.306zM28.5 18.824a1.71 1.71 0 0 1-1.709 1.709h-3.494a3.643 3.643 0 0 0-3.64 3.639v2.995c0 .402-.275.552-.439.607s-.473.097-.714-.226L14.4 22.005a3.654 3.654 0 0 0-2.924-1.472h-.684V6.944l12.92-2.719c.5-.104 1.012.017 1.411.331l2.728 2.152a1.7 1.7 0 0 1 .65 1.342v10.774z" fill="#ffffff" class="fill-000000"></path></svg>