<svg viewBox="0 0 32 32" xml:space="preserve" xmlns="http://www.w3.org/2000/svg" enable-background="new 0 0 32 32"><path d="M26.791 8.467h-3.494a.64.64 0 0 1-.64-.638V4.834c0-1.599-.98-2.955-2.499-3.456a3.59 3.59 0 0 0-4.065 1.29l-4.104 5.54a.642.642 0 0 1-.514.26H4.14A3.643 3.643 0 0 0 .5 12.107v12.025a3.643 3.643 0 0 0 3.64 3.64h4.996l13.959 2.938a4.694 4.694 0 0 0 3.885-.912l2.727-2.15A4.681 4.681 0 0 0 31.5 23.95V13.176a4.714 4.714 0 0 0-4.709-4.709zm-19 16.306H4.14a.64.64 0 0 1-.639-.64V12.107a.64.64 0 0 1 .64-.64h3.652v13.306zm20.709-.822a1.7 1.7 0 0 1-.65 1.342l-2.729 2.151a1.71 1.71 0 0 1-1.41.331l-12.92-2.719V11.467h.684c1.148 0 2.24-.55 2.924-1.472l4.105-5.542c.238-.322.55-.281.714-.227s.44.205.44.608v2.995a3.643 3.643 0 0 0 3.639 3.638h3.494a1.71 1.71 0 0 1 1.709 1.71V23.95z" fill="#ffffff" class="fill-000000"></path></svg>