<svg xmlns="http://www.w3.org/2000/svg" width="97.125" height="71.345" viewBox="0 0 97.125 71.345">
  <g id="undraw_podcast_q6p7000000000" transform="translate(-71.913 -756.325) rotate(54)">
    <path id="Path_164" data-name="Path 164" d="M883.415,546.713s7.635-25.926-1.434-45.011a40.953,40.953,0,0,1-3.312-25.693,68.869,68.869,0,0,1,3.64-12.058" transform="translate(-169.397 -132.858)" fill="none" stroke="#535461" stroke-miterlimit="10" stroke-width="2"/>
    <path id="Path_165" data-name="Path 165" d="M875.555,436.029c0,3.175,5.751,12.392,5.751,12.392s5.751-9.217,5.751-12.392a5.754,5.754,0,1,0-11.508,0Z" transform="translate(-168.288 -117)" fill="#9946b7"/>
    <path id="Path_166" data-name="Path 166" d="M856.767,466.505c1.725,2.646,11.566,7.275,11.566,7.275s-.18-10.862-1.9-13.529a5.755,5.755,0,0,0-9.661,6.254Z" transform="translate(-159.008 -129.878)" fill="#9326b4"/>
    <path id="Path_167" data-name="Path 167" d="M855.563,521.566c2.836,1.429,13.656.444,13.656.444s-5.635-9.286-8.466-10.72a5.753,5.753,0,0,0-5.18,10.275Z" transform="translate(-157.391 -154.86)" fill="#981199"/>
    <path id="Path_168" data-name="Path 168" d="M866.578,564.905c2.556,1.889,13.386,2.746,13.386,2.746s-3.989-10.106-6.54-11.995a5.754,5.754,0,1,0-6.841,9.254Z" transform="translate(-162.967 -175.511)" fill="#bb18b1"/>
    <path id="Path_169" data-name="Path 169" d="M890.8,480.537c-2.28,2.212-12.9,4.508-12.9,4.508s2.6-10.55,4.878-12.762a5.753,5.753,0,1,1,8.016,8.254Z" transform="translate(-169.395 -136.016)" fill="#8e1299"/>
    <path id="Path_170" data-name="Path 170" d="M901.516,529.936c-2.836,1.429-13.656.444-13.656.444s5.635-9.286,8.466-10.72a5.753,5.753,0,0,1,5.18,10.275Z" transform="translate(-174.085 -158.801)" fill="#9c129c"/>
    <path id="Path_171" data-name="Path 171" d="M906.086,580.763c-2.556,1.889-13.386,2.746-13.386,2.746s3.989-10.106,6.54-11.995a5.754,5.754,0,0,1,6.847,9.249Z" transform="translate(-176.364 -182.977)" fill="#e611d4"/>
    <path id="Path_226" data-name="Path 226" d="M839.279,614.512Z" transform="translate(-150.589 -203.038)" fill="#6c63ff"/>
  </g>
</svg>
